<mxfile host="app.diagrams.net" modified="2024-06-13T12:16:05.306Z" agent="Mozilla/5.0 (Macintosh; Intel Mac OS X 10_15_7) AppleWebKit/605.1.15 (KHTML, like Gecko) Version/17.3.1 Safari/605.1.15" etag="KBOoNQ5yav6E4tsF3ivt" version="24.5.4" type="github">
  <diagram id="C5RBs43oDa-KdzZeNtuy" name="Page-1">
    <mxGraphModel dx="1122" dy="694" grid="1" gridSize="10" guides="1" tooltips="1" connect="1" arrows="1" fold="1" page="1" pageScale="1" pageWidth="827" pageHeight="1169" math="0" shadow="0">
      <root>
        <mxCell id="WIyWlLk6GJQsqaUBKTNV-0" />
        <mxCell id="WIyWlLk6GJQsqaUBKTNV-1" parent="WIyWlLk6GJQsqaUBKTNV-0" />
        <mxCell id="WIyWlLk6GJQsqaUBKTNV-2" value="" style="rounded=0;html=1;jettySize=auto;orthogonalLoop=1;fontSize=11;endArrow=block;endFill=0;endSize=8;strokeWidth=1;shadow=0;labelBackgroundColor=none;edgeStyle=orthogonalEdgeStyle;" parent="WIyWlLk6GJQsqaUBKTNV-1" source="WIyWlLk6GJQsqaUBKTNV-3" target="WIyWlLk6GJQsqaUBKTNV-6" edge="1">
          <mxGeometry relative="1" as="geometry" />
        </mxCell>
        <mxCell id="WIyWlLk6GJQsqaUBKTNV-3" value="&lt;span style=&quot;&quot; id=&quot;docs-internal-guid-8fd6931e-7fff-bda2-6103-c849a8ad8529&quot;&gt;&lt;span style=&quot;font-size: 11pt; font-family: Arial, sans-serif; font-variant-ligatures: normal; font-variant-alternates: normal; font-variant-numeric: normal; font-variant-east-asian: normal; font-variant-position: normal; vertical-align: baseline; white-space: pre-wrap;&quot;&gt;监测&lt;/span&gt;&lt;/span&gt;&lt;div&gt;&lt;span style=&quot;&quot;&gt;&lt;span style=&quot;font-size: 11pt; font-family: Arial, sans-serif; font-variant-ligatures: normal; font-variant-alternates: normal; font-variant-numeric: normal; font-variant-east-asian: normal; font-variant-position: normal; vertical-align: baseline; white-space: pre-wrap;&quot;&gt;pv_allcoin_raw_data_daily_cmc&lt;/span&gt;&lt;span style=&quot;font-variant-ligatures: normal; font-variant-alternates: normal; font-variant-numeric: normal; font-variant-east-asian: normal; font-variant-position: normal; vertical-align: baseline; text-wrap: wrap;&quot;&gt;_XXX每日的数据和前一日相比&lt;/span&gt;&lt;/span&gt;&lt;/div&gt;" style="rounded=1;whiteSpace=wrap;html=1;fontSize=12;glass=0;strokeWidth=1;shadow=0;align=center;" parent="WIyWlLk6GJQsqaUBKTNV-1" vertex="1">
          <mxGeometry x="160" y="60" width="250" height="60" as="geometry" />
        </mxCell>
        <mxCell id="WIyWlLk6GJQsqaUBKTNV-5" value="name/symbol" style="edgeStyle=orthogonalEdgeStyle;rounded=0;html=1;jettySize=auto;orthogonalLoop=1;fontSize=11;endArrow=block;endFill=0;endSize=8;strokeWidth=1;shadow=0;labelBackgroundColor=none;" parent="WIyWlLk6GJQsqaUBKTNV-1" edge="1">
          <mxGeometry x="-0.0947" y="10" relative="1" as="geometry">
            <mxPoint as="offset" />
            <mxPoint x="337" y="200" as="sourcePoint" />
            <mxPoint x="432" y="200" as="targetPoint" />
          </mxGeometry>
        </mxCell>
        <mxCell id="WIyWlLk6GJQsqaUBKTNV-6" value="字段名" style="rhombus;whiteSpace=wrap;html=1;shadow=0;fontFamily=Helvetica;fontSize=12;align=center;strokeWidth=1;spacing=6;spacingTop=-4;" parent="WIyWlLk6GJQsqaUBKTNV-1" vertex="1">
          <mxGeometry x="235" y="160" width="100" height="80" as="geometry" />
        </mxCell>
        <mxCell id="rjteWfe4-FW4o2zAH2R2-1" value="是否有变化" style="rhombus;whiteSpace=wrap;html=1;" vertex="1" parent="WIyWlLk6GJQsqaUBKTNV-1">
          <mxGeometry x="430" y="160" width="80" height="80" as="geometry" />
        </mxCell>
        <mxCell id="rjteWfe4-FW4o2zAH2R2-2" value="是否有变化" style="rhombus;whiteSpace=wrap;html=1;" vertex="1" parent="WIyWlLk6GJQsqaUBKTNV-1">
          <mxGeometry x="110" y="160" width="80" height="80" as="geometry" />
        </mxCell>
        <mxCell id="rjteWfe4-FW4o2zAH2R2-6" value="tag" style="edgeStyle=orthogonalEdgeStyle;rounded=0;html=1;jettySize=auto;orthogonalLoop=1;fontSize=11;endArrow=block;endFill=0;endSize=8;strokeWidth=1;shadow=0;labelBackgroundColor=none;exitX=0;exitY=0.5;exitDx=0;exitDy=0;entryX=1;entryY=0.5;entryDx=0;entryDy=0;" edge="1" parent="WIyWlLk6GJQsqaUBKTNV-1" source="WIyWlLk6GJQsqaUBKTNV-6" target="rjteWfe4-FW4o2zAH2R2-2">
          <mxGeometry x="-0.2308" y="-10" relative="1" as="geometry">
            <mxPoint as="offset" />
            <mxPoint x="345" y="210" as="sourcePoint" />
            <mxPoint x="440" y="210" as="targetPoint" />
          </mxGeometry>
        </mxCell>
        <mxCell id="rjteWfe4-FW4o2zAH2R2-7" value="增加or减少" style="rhombus;whiteSpace=wrap;html=1;" vertex="1" parent="WIyWlLk6GJQsqaUBKTNV-1">
          <mxGeometry x="430" y="280" width="80" height="80" as="geometry" />
        </mxCell>
        <mxCell id="rjteWfe4-FW4o2zAH2R2-8" value="是" style="edgeStyle=orthogonalEdgeStyle;rounded=0;html=1;jettySize=auto;orthogonalLoop=1;fontSize=11;endArrow=block;endFill=0;endSize=8;strokeWidth=1;shadow=0;labelBackgroundColor=none;exitX=0.5;exitY=1;exitDx=0;exitDy=0;entryX=0.5;entryY=0;entryDx=0;entryDy=0;" edge="1" parent="WIyWlLk6GJQsqaUBKTNV-1" source="rjteWfe4-FW4o2zAH2R2-1" target="rjteWfe4-FW4o2zAH2R2-7">
          <mxGeometry y="10" relative="1" as="geometry">
            <mxPoint as="offset" />
            <mxPoint x="345" y="210" as="sourcePoint" />
            <mxPoint x="440" y="210" as="targetPoint" />
          </mxGeometry>
        </mxCell>
        <mxCell id="rjteWfe4-FW4o2zAH2R2-9" value="有新币种上市" style="rounded=1;whiteSpace=wrap;html=1;" vertex="1" parent="WIyWlLk6GJQsqaUBKTNV-1">
          <mxGeometry x="340" y="380" width="90" height="30" as="geometry" />
        </mxCell>
        <mxCell id="rjteWfe4-FW4o2zAH2R2-10" value="有币种退市" style="rounded=1;whiteSpace=wrap;html=1;" vertex="1" parent="WIyWlLk6GJQsqaUBKTNV-1">
          <mxGeometry x="510" y="380" width="90" height="30" as="geometry" />
        </mxCell>
        <mxCell id="rjteWfe4-FW4o2zAH2R2-11" value="记录新币种的：&lt;div&gt;name、symbol、slug、num_market_pairs、date_added、tags...（原始表里的所有字段）&lt;/div&gt;" style="rounded=1;whiteSpace=wrap;html=1;" vertex="1" parent="WIyWlLk6GJQsqaUBKTNV-1">
          <mxGeometry x="307.5" y="430" width="155" height="90" as="geometry" />
        </mxCell>
        <mxCell id="rjteWfe4-FW4o2zAH2R2-24" style="edgeStyle=orthogonalEdgeStyle;rounded=0;orthogonalLoop=1;jettySize=auto;html=1;exitX=0.5;exitY=1;exitDx=0;exitDy=0;entryX=0.5;entryY=0;entryDx=0;entryDy=0;" edge="1" parent="WIyWlLk6GJQsqaUBKTNV-1" source="rjteWfe4-FW4o2zAH2R2-13" target="rjteWfe4-FW4o2zAH2R2-22">
          <mxGeometry relative="1" as="geometry" />
        </mxCell>
        <mxCell id="rjteWfe4-FW4o2zAH2R2-13" value="记录退市币种的：&lt;div&gt;name、symbol、slug、tags&lt;/div&gt;" style="rounded=1;whiteSpace=wrap;html=1;" vertex="1" parent="WIyWlLk6GJQsqaUBKTNV-1">
          <mxGeometry x="477.5" y="430" width="155" height="40" as="geometry" />
        </mxCell>
        <mxCell id="rjteWfe4-FW4o2zAH2R2-14" value="增加" style="edgeStyle=orthogonalEdgeStyle;rounded=0;html=1;jettySize=auto;orthogonalLoop=1;fontSize=11;endArrow=block;endFill=0;endSize=8;strokeWidth=1;shadow=0;labelBackgroundColor=none;exitX=0;exitY=0.5;exitDx=0;exitDy=0;entryX=0.5;entryY=0;entryDx=0;entryDy=0;" edge="1" parent="WIyWlLk6GJQsqaUBKTNV-1" source="rjteWfe4-FW4o2zAH2R2-7" target="rjteWfe4-FW4o2zAH2R2-9">
          <mxGeometry x="-0.1429" y="-11" relative="1" as="geometry">
            <mxPoint x="6" y="-10" as="offset" />
            <mxPoint x="347" y="210" as="sourcePoint" />
            <mxPoint x="442" y="210" as="targetPoint" />
          </mxGeometry>
        </mxCell>
        <mxCell id="rjteWfe4-FW4o2zAH2R2-15" value="减少" style="edgeStyle=orthogonalEdgeStyle;rounded=0;html=1;jettySize=auto;orthogonalLoop=1;fontSize=11;endArrow=block;endFill=0;endSize=8;strokeWidth=1;shadow=0;labelBackgroundColor=none;exitX=1;exitY=0.5;exitDx=0;exitDy=0;entryX=0.5;entryY=0;entryDx=0;entryDy=0;" edge="1" parent="WIyWlLk6GJQsqaUBKTNV-1" source="rjteWfe4-FW4o2zAH2R2-7" target="rjteWfe4-FW4o2zAH2R2-10">
          <mxGeometry x="-0.1429" y="11" relative="1" as="geometry">
            <mxPoint x="-6" y="-10" as="offset" />
            <mxPoint x="357" y="220" as="sourcePoint" />
            <mxPoint x="452" y="220" as="targetPoint" />
          </mxGeometry>
        </mxCell>
        <mxCell id="rjteWfe4-FW4o2zAH2R2-16" value="" style="endArrow=classic;html=1;rounded=0;exitX=0.5;exitY=1;exitDx=0;exitDy=0;" edge="1" parent="WIyWlLk6GJQsqaUBKTNV-1" source="rjteWfe4-FW4o2zAH2R2-9" target="rjteWfe4-FW4o2zAH2R2-11">
          <mxGeometry width="50" height="50" relative="1" as="geometry">
            <mxPoint x="520" y="350" as="sourcePoint" />
            <mxPoint x="570" y="300" as="targetPoint" />
          </mxGeometry>
        </mxCell>
        <mxCell id="rjteWfe4-FW4o2zAH2R2-17" value="" style="endArrow=classic;html=1;rounded=0;exitX=0.5;exitY=1;exitDx=0;exitDy=0;" edge="1" parent="WIyWlLk6GJQsqaUBKTNV-1">
          <mxGeometry width="50" height="50" relative="1" as="geometry">
            <mxPoint x="554.83" y="410" as="sourcePoint" />
            <mxPoint x="554.83" y="430" as="targetPoint" />
          </mxGeometry>
        </mxCell>
        <mxCell id="rjteWfe4-FW4o2zAH2R2-18" value="是" style="edgeStyle=orthogonalEdgeStyle;rounded=0;html=1;jettySize=auto;orthogonalLoop=1;fontSize=11;endArrow=block;endFill=0;endSize=8;strokeWidth=1;shadow=0;labelBackgroundColor=none;exitX=0.5;exitY=1;exitDx=0;exitDy=0;entryX=0.5;entryY=0;entryDx=0;entryDy=0;" edge="1" parent="WIyWlLk6GJQsqaUBKTNV-1">
          <mxGeometry y="10" relative="1" as="geometry">
            <mxPoint as="offset" />
            <mxPoint x="149.75" y="240" as="sourcePoint" />
            <mxPoint x="149.75" y="280" as="targetPoint" />
          </mxGeometry>
        </mxCell>
        <mxCell id="rjteWfe4-FW4o2zAH2R2-19" value="有币种更换板块" style="rounded=1;whiteSpace=wrap;html=1;" vertex="1" parent="WIyWlLk6GJQsqaUBKTNV-1">
          <mxGeometry x="105" y="280" width="90" height="30" as="geometry" />
        </mxCell>
        <mxCell id="rjteWfe4-FW4o2zAH2R2-20" value="记录tag有变化币种的：&lt;div&gt;name、symbol、slug、原始tags、最新tags&lt;/div&gt;" style="rounded=1;whiteSpace=wrap;html=1;" vertex="1" parent="WIyWlLk6GJQsqaUBKTNV-1">
          <mxGeometry x="72.5" y="330" width="155" height="70" as="geometry" />
        </mxCell>
        <mxCell id="rjteWfe4-FW4o2zAH2R2-21" value="" style="endArrow=classic;html=1;rounded=0;exitX=0.5;exitY=1;exitDx=0;exitDy=0;entryX=0.5;entryY=0;entryDx=0;entryDy=0;" edge="1" parent="WIyWlLk6GJQsqaUBKTNV-1" source="rjteWfe4-FW4o2zAH2R2-19" target="rjteWfe4-FW4o2zAH2R2-20">
          <mxGeometry width="50" height="50" relative="1" as="geometry">
            <mxPoint x="260" y="410" as="sourcePoint" />
            <mxPoint x="310" y="360" as="targetPoint" />
          </mxGeometry>
        </mxCell>
        <mxCell id="rjteWfe4-FW4o2zAH2R2-22" value="从tags里的板块中删除该币种信息" style="rounded=1;whiteSpace=wrap;html=1;" vertex="1" parent="WIyWlLk6GJQsqaUBKTNV-1">
          <mxGeometry x="477.5" y="490" width="155" height="40" as="geometry" />
        </mxCell>
        <mxCell id="rjteWfe4-FW4o2zAH2R2-25" value="将上述信息输出成文档&lt;div&gt;方便运营进行进一步的人工筛查&lt;/div&gt;" style="rounded=1;whiteSpace=wrap;html=1;" vertex="1" parent="WIyWlLk6GJQsqaUBKTNV-1">
          <mxGeometry x="70" y="585" width="560" height="60" as="geometry" />
        </mxCell>
        <mxCell id="rjteWfe4-FW4o2zAH2R2-26" value="" style="endArrow=classic;html=1;rounded=0;exitX=0.5;exitY=1;exitDx=0;exitDy=0;entryX=0.143;entryY=0.021;entryDx=0;entryDy=0;entryPerimeter=0;" edge="1" parent="WIyWlLk6GJQsqaUBKTNV-1" source="rjteWfe4-FW4o2zAH2R2-20" target="rjteWfe4-FW4o2zAH2R2-25">
          <mxGeometry width="50" height="50" relative="1" as="geometry">
            <mxPoint x="460" y="440" as="sourcePoint" />
            <mxPoint x="150" y="580" as="targetPoint" />
          </mxGeometry>
        </mxCell>
        <mxCell id="rjteWfe4-FW4o2zAH2R2-27" value="" style="endArrow=classic;html=1;rounded=0;exitX=0.5;exitY=1;exitDx=0;exitDy=0;entryX=0.562;entryY=0.024;entryDx=0;entryDy=0;entryPerimeter=0;" edge="1" parent="WIyWlLk6GJQsqaUBKTNV-1" source="rjteWfe4-FW4o2zAH2R2-11" target="rjteWfe4-FW4o2zAH2R2-25">
          <mxGeometry width="50" height="50" relative="1" as="geometry">
            <mxPoint x="460" y="440" as="sourcePoint" />
            <mxPoint x="385" y="580" as="targetPoint" />
          </mxGeometry>
        </mxCell>
        <mxCell id="rjteWfe4-FW4o2zAH2R2-28" value="" style="endArrow=classic;html=1;rounded=0;exitX=0.489;exitY=0.99;exitDx=0;exitDy=0;exitPerimeter=0;entryX=0.864;entryY=0.003;entryDx=0;entryDy=0;entryPerimeter=0;" edge="1" parent="WIyWlLk6GJQsqaUBKTNV-1" source="rjteWfe4-FW4o2zAH2R2-22" target="rjteWfe4-FW4o2zAH2R2-25">
          <mxGeometry width="50" height="50" relative="1" as="geometry">
            <mxPoint x="520" y="550" as="sourcePoint" />
            <mxPoint x="570" y="500" as="targetPoint" />
          </mxGeometry>
        </mxCell>
      </root>
    </mxGraphModel>
  </diagram>
</mxfile>
